<svg width="512" height="220" viewBox="0 0 512 220" fill="none" xmlns="http://www.w3.org/2000/svg">
<path d="M6.56 27.792H26.944L43.896 79.688L60.952 27.792H81.128L52.632 106H35.16L6.56 27.792ZM88.72 56.912H108.376V106H88.72V56.912ZM98.496 48.176C92.88 48.176 88.304 43.6 88.304 37.984C88.304 32.576 92.88 27.792 98.496 27.792C104.112 27.792 108.688 32.576 108.688 37.984C108.688 43.6 104.112 48.176 98.496 48.176ZM119.798 27.584H163.998C177.414 27.584 188.334 38.504 188.334 52.024C188.334 57.536 186.67 62.632 183.55 66.792C188.75 73.76 188.334 79.584 188.334 87.696C188.334 97.784 180.222 106 170.134 106H119.798C119.798 79.688 119.798 53.688 119.798 27.584ZM163.998 75.632H139.454V86.344H168.886V80.416C168.886 77.92 166.702 75.632 163.998 75.632ZM163.998 47.136H139.454V58.264H163.998C170.55 58.264 170.238 47.136 163.998 47.136ZM233.131 40.168C238.539 40.168 243.635 41.312 248.107 43.496V71.056C246.651 63.88 239.995 59.72 233.131 59.72C225.227 59.72 218.051 65.648 218.051 73.448C218.051 91.024 248.315 91.648 248.315 73.448C248.315 72.72 248.211 72.096 248.107 71.472L261.627 54.624C265.475 59.824 267.867 66.376 267.867 73.448C267.867 92.48 250.811 106.728 233.131 106.728C214.411 106.728 198.499 91.544 198.499 73.448C198.499 54.312 215.451 40.168 233.131 40.168ZM330.223 41.208H349.671V71.68C349.671 117.648 278.639 117.648 278.639 71.68V41.208H298.191V71.68C298.191 92.064 330.223 92.064 330.223 71.68V41.208ZM432.559 106.104H413.007V75.944C413.007 55.456 380.663 55.456 380.663 75.944V106.104H361.007V75.944C361.007 29.664 432.559 29.664 432.559 75.944V106.104ZM486.836 45.576V27.792H506.492C506.492 43.808 506.492 59.72 506.492 75.736C506.492 84.16 503.06 91.856 497.652 97.264C485.692 109.224 463.228 109.224 451.06 97.264C445.548 91.856 442.324 84.16 442.324 75.736C442.324 58.992 455.844 45.576 472.588 45.576H486.836ZM486.836 65.128H472.588C466.66 65.128 461.772 69.912 461.772 75.736C461.772 78.752 463.124 81.56 465.1 83.328C469.26 87.696 479.348 87.696 483.716 83.328C485.796 81.56 487.044 78.752 487.044 75.736L486.836 65.128Z" fill="white"/>
<path d="M202.684 161.662L210.011 161.021C210.358 163.958 211.159 166.373 212.413 168.268C213.694 170.137 215.67 171.658 218.339 172.833C221.008 173.981 224.011 174.555 227.348 174.555C230.311 174.555 232.926 174.114 235.195 173.233C237.464 172.352 239.146 171.151 240.24 169.63C241.361 168.082 241.922 166.4 241.922 164.585C241.922 162.743 241.388 161.141 240.32 159.78C239.253 158.392 237.491 157.231 235.035 156.297C233.46 155.683 229.977 154.735 224.585 153.454C219.193 152.146 215.416 150.918 213.254 149.77C210.451 148.302 208.356 146.487 206.968 144.325C205.606 142.136 204.926 139.694 204.926 136.998C204.926 134.035 205.767 131.272 207.448 128.71C209.13 126.121 211.586 124.159 214.815 122.824C218.045 121.489 221.635 120.822 225.586 120.822C229.937 120.822 233.767 121.53 237.077 122.944C240.414 124.332 242.976 126.388 244.765 129.11C246.553 131.833 247.514 134.916 247.647 138.359L240.2 138.92C239.8 135.21 238.438 132.407 236.116 130.512C233.821 128.616 230.417 127.669 225.906 127.669C221.208 127.669 217.778 128.536 215.616 130.271C213.481 131.98 212.413 134.048 212.413 136.477C212.413 138.586 213.174 140.321 214.695 141.682C216.19 143.044 220.087 144.445 226.387 145.887C232.713 147.301 237.05 148.543 239.399 149.61C242.816 151.185 245.339 153.187 246.967 155.616C248.595 158.018 249.409 160.794 249.409 163.944C249.409 167.067 248.515 170.017 246.727 172.793C244.938 175.542 242.362 177.691 238.999 179.239C235.662 180.761 231.899 181.521 227.708 181.521C222.396 181.521 217.938 180.747 214.335 179.199C210.758 177.651 207.942 175.329 205.887 172.232C203.858 169.109 202.79 165.586 202.684 161.662ZM290.414 174.074L291.455 180.44C289.426 180.867 287.611 181.081 286.01 181.081C283.394 181.081 281.365 180.667 279.924 179.84C278.482 179.012 277.468 177.931 276.881 176.597C276.294 175.235 276 172.392 276 168.068V143.604H270.715V137.999H276V127.469L283.167 123.144V137.999H290.414V143.604H283.167V168.469C283.167 170.524 283.287 171.845 283.527 172.432C283.794 173.02 284.208 173.487 284.768 173.834C285.356 174.181 286.183 174.354 287.251 174.354C288.052 174.354 289.106 174.261 290.414 174.074ZM340.948 180.52V174.274C337.638 179.079 333.14 181.481 327.455 181.481C324.946 181.481 322.597 181.001 320.408 180.04C318.246 179.079 316.631 177.878 315.563 176.436C314.522 174.968 313.788 173.18 313.361 171.071C313.068 169.656 312.921 167.414 312.921 164.345V137.999H320.128V161.582C320.128 165.346 320.275 167.881 320.568 169.189C321.022 171.085 321.983 172.579 323.451 173.674C324.919 174.741 326.734 175.275 328.896 175.275C331.058 175.275 333.087 174.728 334.982 173.634C336.877 172.513 338.212 171.004 338.986 169.109C339.787 167.187 340.187 164.411 340.187 160.781V137.999H347.394V180.52H340.948ZM401.892 180.52V175.155C399.196 179.373 395.233 181.481 390.001 181.481C386.611 181.481 383.488 180.547 380.632 178.679C377.802 176.81 375.6 174.208 374.025 170.871C372.477 167.508 371.703 163.651 371.703 159.3C371.703 155.056 372.41 151.212 373.825 147.768C375.24 144.298 377.362 141.642 380.191 139.801C383.021 137.959 386.184 137.038 389.68 137.038C392.243 137.038 394.525 137.585 396.527 138.68C398.529 139.747 400.157 141.149 401.412 142.884V121.823H408.579V180.52H401.892ZM379.11 159.3C379.11 164.745 380.258 168.816 382.553 171.512C384.849 174.208 387.558 175.556 390.681 175.556C393.831 175.556 396.5 174.274 398.689 171.712C400.905 169.123 402.012 165.185 402.012 159.9C402.012 154.081 400.891 149.81 398.649 147.088C396.407 144.365 393.644 143.004 390.361 143.004C387.158 143.004 384.475 144.312 382.313 146.928C380.178 149.543 379.11 153.668 379.11 159.3ZM435.57 130.111V121.823H442.777V130.111H435.57ZM435.57 180.52V137.999H442.777V180.52H435.57ZM466.685 159.26C466.685 151.385 468.874 145.553 473.252 141.763C476.908 138.613 481.366 137.038 486.625 137.038C492.47 137.038 497.248 138.96 500.959 142.804C504.669 146.621 506.524 151.906 506.524 158.659C506.524 164.131 505.697 168.442 504.042 171.592C502.413 174.715 500.024 177.144 496.875 178.879C493.752 180.614 490.335 181.481 486.625 181.481C480.672 181.481 475.854 179.573 472.171 175.756C468.514 171.939 466.685 166.44 466.685 159.26ZM474.092 159.26C474.092 164.705 475.28 168.789 477.656 171.512C480.032 174.208 483.021 175.556 486.625 175.556C490.201 175.556 493.178 174.194 495.553 171.472C497.929 168.749 499.117 164.598 499.117 159.019C499.117 153.761 497.916 149.784 495.513 147.088C493.138 144.365 490.175 143.004 486.625 143.004C483.021 143.004 480.032 144.352 477.656 147.048C475.28 149.744 474.092 153.814 474.092 159.26Z" fill="white"/>
<path d="M199 192.212H509.567V198.218H199V192.212Z" fill="white"/>
</svg>
